<svg id="Group_17859" data-name="Group 17859" xmlns="http://www.w3.org/2000/svg" xmlns:xlink="http://www.w3.org/1999/xlink" width="125.011" height="94.322" viewBox="0 0 125.011 94.322">
  <defs>
    <linearGradient id="linear-gradient" x1="0.969" y1="0.76" x2="-0.176" y2="0.116" gradientUnits="objectBoundingBox">
      <stop offset="0" stop-color="#53bcd4"/>
      <stop offset="0.313" stop-color="#126aad"/>
      <stop offset="0.751" stop-color="#a8d525"/>
    </linearGradient>
    <linearGradient id="linear-gradient-2" x1="31.371" y1="15.259" x2="-14.158" y2="-6.527" xlink:href="#linear-gradient"/>
    <linearGradient id="linear-gradient-3" x1="16.546" y1="8.233" x2="-5.083" y2="-2.193" xlink:href="#linear-gradient"/>
    <linearGradient id="linear-gradient-4" x1="21.227" y1="10.21" x2="-7.998" y2="-3.474" xlink:href="#linear-gradient"/>
    <linearGradient id="linear-gradient-5" x1="0.031" y1="0.245" x2="1.231" y2="0.909" xlink:href="#linear-gradient"/>
    <linearGradient id="linear-gradient-6" x1="-30.222" y1="-14.119" x2="17.363" y2="8.533" xlink:href="#linear-gradient"/>
    <linearGradient id="linear-gradient-7" x1="-15.944" y1="-7.129" x2="7.298" y2="3.651" xlink:href="#linear-gradient"/>
    <linearGradient id="linear-gradient-8" x1="-20.24" y1="-9.026" x2="10.463" y2="5.089" xlink:href="#linear-gradient"/>
  </defs>
  <path id="Path_566" data-name="Path 566" d="M766.5,589.666v5.292c-1.766,36.125-37.185,60.123-70.366,44.239a28.352,28.352,0,0,1-2.579-1.531c-21.3-13.289-24.715-37.05-16.125-56.472a76.92,76.92,0,0,1,9.3-15.413,4.9,4.9,0,0,1,1.794-1.469,2.421,2.421,0,0,1,2.8.409c1.166,1.06.695,2.944-.471,4.244-4.357,4.7-7.771,8.59-9.89,15.054-5.646,16.944,1.183,35.183,18,42.007h.011c24.934,8.808,43.279-8.6,45.281-32.357,0-.595.123-1.172.123-1.761-.241-9.89,3.292-15.537,8.354-16.6,6.117-1.29,12.234,2.243,13.641,13.882A.677.677,0,0,0,766.5,589.666Z" transform="translate(-673.057 -549.865)" fill="url(#linear-gradient)"/>
  <path id="Path_567" data-name="Path 567" d="M680.029,565.04a1.177,1.177,0,0,1,0-2.355c.7-.118,1.172.471,1.172,1.177a1.179,1.179,0,0,1-1.172,1.178" transform="translate(-646.357 -556.179)" fill="url(#linear-gradient-2)"/>
  <path id="Path_568" data-name="Path 568" d="M679.2,568.19a2.414,2.414,0,0,1-2.473-2.472,2.569,2.569,0,0,1,2.473-2.472,2.39,2.39,0,0,1,2.473,2.355,2.593,2.593,0,0,1-2.473,2.59" transform="translate(-656.124 -553.565)" fill="url(#linear-gradient-3)"/>
  <path id="Path_569" data-name="Path 569" d="M679.749,566.582a1.7,1.7,0,0,1-1.884-1.761,2.042,2.042,0,0,1,1.884-2,1.764,1.764,0,0,1,1.766,1.884,1.836,1.836,0,0,1-1.766,1.878" transform="translate(-650.904 -555.489)" fill="url(#linear-gradient-4)"/>
  <path id="Path_570" data-name="Path 570" d="M685.005,566.867a38.668,38.668,0,0,1,3.644-3.162A42.24,42.24,0,0,0,685.005,566.867Z" transform="translate(-618.011 -551.412)" fill="#126aad"/>
  <path id="Path_571" data-name="Path 571" d="M700.327,566.129a37.824,37.824,0,0,0-12.021-1.761A36.476,36.476,0,0,1,700.327,566.129Z" transform="translate(-602.804 -548.42)" fill="#126aad"/>
  <path id="Path_572" data-name="Path 572" d="M690.693,562.427c.97.168,1.929.381,2.859.628C692.616,562.808,691.663,562.6,690.693,562.427Z" transform="translate(-591.808 -557.3)" fill="#126aad"/>
  <path id="Path_573" data-name="Path 573" d="M693.956,563.414c-.9-.331-1.822-.623-2.753-.875C692.145,562.791,693.059,563.083,693.956,563.414Z" transform="translate(-589.458 -556.784)" fill="#126aad"/>
  <path id="Path_574" data-name="Path 574" d="M767.985,623.813c-.112.269-.219.538-.343.8a76.893,76.893,0,0,1-9.285,15.413c-1.183,1.408-3.067,2.473-4.6,1.049-1.177-1.049-.7-3.05.471-4.233,4.356-4.7,7.765-8.59,9.89-15.055,5.646-17.067-1.06-35.183-17.886-42.007-.56-.2-1.121-.392-1.682-.56a36.485,36.485,0,0,0-12.021-1.761c-.258,0-.522.012-.78.028a.2.2,0,0,0-.14.011c-17.348.942-29.206,15.794-30.787,34.639,0,.594-.123,1.172-.123,1.76.23,9.89-3.291,15.537-8.355,16.6-6.117,1.29-12.234-2.349-13.641-13.882V610.85c1.637-36.243,37.05-60.364,70.232-44.238a17.851,17.851,0,0,1,2.59,1.531C772.649,581.134,776.142,604.436,767.985,623.813Z" transform="translate(-647.03 -561.512)" fill="url(#linear-gradient-5)"/>
  <path id="Path_575" data-name="Path 575" d="M690.693,562.427c.97.168,1.929.381,2.859.628C692.616,562.808,691.663,562.6,690.693,562.427Z" transform="translate(-591.808 -557.3)" fill="#53bcd4"/>
  <path id="Path_576" data-name="Path 576" d="M693.956,563.414c-.9-.331-1.822-.623-2.753-.875C692.145,562.791,693.059,563.083,693.956,563.414Z" transform="translate(-589.458 -556.784)" fill="#53bcd4"/>
  <path id="Path_577" data-name="Path 577" d="M690.312,576.774a1.18,1.18,0,0,1,1.178,1.178,1.267,1.267,0,0,1-1.178,1.177,1.113,1.113,0,0,1-1.178-1.177,1.267,1.267,0,0,1,1.178-1.178" transform="translate(-598.99 -491.205)" fill="url(#linear-gradient-6)"/>
  <path id="Path_578" data-name="Path 578" d="M693.162,575.753a2.32,2.32,0,0,1,2.473,2.355,2.513,2.513,0,0,1-2.473,2.585,2.384,2.384,0,0,1-2.349-2.467,2.461,2.461,0,0,1,2.349-2.473" transform="translate(-591.255 -495.948)" fill="url(#linear-gradient-7)"/>
  <path id="Path_579" data-name="Path 579" d="M691.773,576.354a1.837,1.837,0,0,1,1.766,1.884,1.86,1.86,0,0,1-1.883,1.884,1.666,1.666,0,0,1-1.766-1.766,2.043,2.043,0,0,1,1.884-2" transform="translate(-595.512 -493.14)" fill="url(#linear-gradient-8)"/>
</svg>
