<svg id="Group_17855" data-name="Group 17855" xmlns="http://www.w3.org/2000/svg" xmlns:xlink="http://www.w3.org/1999/xlink" width="415.154" height="53.982" viewBox="0 0 415.154 53.982">
  <defs>
    <linearGradient id="linear-gradient" x1="-6.5" y1="0.5" x2="0.805" y2="0.5" gradientUnits="objectBoundingBox">
      <stop offset="0" stop-color="#f21f5a"/>
      <stop offset="0.297" stop-color="#a57922"/>
      <stop offset="0.66" stop-color="#528060"/>
      <stop offset="1" stop-color="#3ca08e"/>
    </linearGradient>
    <linearGradient id="linear-gradient-2" x1="-2.072" y1="0.5" x2="4.014" y2="0.5" xlink:href="#linear-gradient"/>
    <linearGradient id="linear-gradient-3" x1="-4.15" y1="0.5" x2="3.103" y2="0.5" xlink:href="#linear-gradient"/>
    <linearGradient id="linear-gradient-4" x1="-8.51" y1="0.5" x2="2.829" y2="0.5" xlink:href="#linear-gradient"/>
    <linearGradient id="linear-gradient-5" x1="-0.047" y1="0.5" x2="3.573" y2="0.5" xlink:href="#linear-gradient"/>
  </defs>
  <path id="Path_1146" data-name="Path 1146" d="M818.642,588.77c0-1.278-.852-2.548-2.765-4.67l-14.009-14.434c-2.757-3.19,1.274-8.282,4.669-4.886,6.156,6.369,11.461,11.465,17.4,17.621a8.3,8.3,0,0,1,2.552,6.369,8.462,8.462,0,0,1-2.552,6.578C818,601.5,812.7,606.6,806.539,612.969c-3.4,3.392-7.426-1.7-4.669-4.883l14.009-14.438c1.913-2.122,2.765-3.392,2.765-4.879m20.587,0c0-1.278,1.06-2.548,2.76-4.67l14.222-14.434c2.544-3.19-1.487-8.282-4.882-4.886-6.153,6.369-11.465,11.465-17.408,17.621a9.147,9.147,0,0,0-2.548,6.369,9.3,9.3,0,0,0,2.548,6.578c5.943,6.152,11.255,11.251,17.408,17.621,3.4,3.392,7.427-1.7,4.882-4.883L841.99,593.648c-1.7-2.122-2.76-3.392-2.76-4.879" transform="translate(-441.858 -560.11)" fill="url(#linear-gradient)"/>
  <path id="Path_1145" data-name="Path 1145" d="M774.277,602.543V572.191a4.407,4.407,0,0,1,4.031-4.457h12.951c10.613,0,16.769,5.092,16.769,14.86v19.526c-.213,2.97-1.487,4.243-3.4,4.243s-3.609-1.274-3.609-4.243V582.595c0-5.521-5.517-8.069-9.761-8.069-4.034,0-9.978,2.548-9.978,7.852v20.165c0,4.034-7,4.251-7,0m-29.929-36.086h0a3.409,3.409,0,0,1,3.4,3.612v32.9a3.353,3.353,0,0,1-3.4,3.392,3.536,3.536,0,0,1-3.609-3.392v-32.9a3.578,3.578,0,0,1,3.609-3.612" transform="translate(-606.582 -552.449)" fill="url(#linear-gradient-2)"/>
  <path id="Path_1147" data-name="Path 1147" d="M819.205,614.377a3.337,3.337,0,0,0,3.4-3.4,3.868,3.868,0,0,0-3.818-3.609c-4.882,0-8.495-1.7-8.495-8.065V582.961h5.947a3.388,3.388,0,0,0,3.183-3.183,3,3,0,0,0-3.183-3.183h-5.947v-8.917c0-2.974-1.487-4.461-3.4-4.461s-3.608,1.487-3.608,4.461v29.078c0,12.1,4.031,17.621,15.917,17.621m-49.459-39.059h0a3.41,3.41,0,0,1,3.4,3.612v32.9a3.353,3.353,0,0,1-3.4,3.392,3.541,3.541,0,0,1-3.609-3.392v-32.9a3.583,3.583,0,0,1,3.609-3.612" transform="translate(-537.101 -561.309)" fill="url(#linear-gradient-3)"/>
  <path id="Path_1148" data-name="Path 1148" d="M812.859,595.937l.639-.635c1.7-1.487,3.818-1.487,4.879-.426a3.38,3.38,0,0,1,0,4.882l-.639.635c-3.392,3.609-8.7,5.312-14.008,4.883V598.91a11.7,11.7,0,0,0,9.13-2.973m-9.13-29.082c8.491.213,16.986,6.157,18.043,17.834.213,2.335-.848,3.182-2.757,3.4H803.729v-6.37h11.038s.426.213.426-.426c-1.278-5.939-6.369-8.7-11.464-8.7Zm0,38.421c-9.13-.635-18.043-7.217-18.043-19.526,0-12.525,8.913-18.895,18.043-18.895v5.731c-5.1.213-10.191,2.974-11.465,8.7a.417.417,0,0,0,.426.426h11.039v6.37H792.9a.8.8,0,0,0-.639.426c.852,6.153,6.156,9.761,11.465,10.4Z" transform="translate(-483.625 -551.359)" fill="url(#linear-gradient-4)"/>
  <path id="Path_1144" data-name="Path 1144" d="M737.942,612.805V582.45a4.406,4.406,0,0,1,4.031-4.461h12.947c10.616,0,16.982,5.1,16.982,14.86v19.53c-.213,2.97-1.483,4.244-3.4,4.244s-3.821-1.274-3.609-4.244V592.85c0-5.517-5.943-8.065-9.977-8.065-4.244,0-9.974,2.548-9.974,7.852v20.169c0,4.031-7,4.244-7,0m-29.72-36.086h0a3.574,3.574,0,0,1,3.609,3.609v32.9a3.533,3.533,0,0,1-3.609,3.392,3.351,3.351,0,0,1-3.4-3.392v-32.9a3.406,3.406,0,0,1,3.4-3.609m91.489,36.086V578.841c0-10.19,4.247-16.134,14.86-16.134a3.641,3.641,0,0,1,3.4,3.608,3.7,3.7,0,0,1-3.609,3.609c-7.643,0-7.43,4.034-7.43,8.917H813.3a3.115,3.115,0,0,1,3.183,3.183,3.242,3.242,0,0,1-3.183,3.183h-6.369v27.6c0,4.244-7.217,4.244-7.217,0" transform="translate(-704.826 -562.707)" fill="url(#linear-gradient-5)"/>
</svg>
